<svg xmlns="http://www.w3.org/2000/svg" version="1.1" xmlns:xlink="http://www.w3.org/1999/xlink" xmlns:svgjs="http://svgjs.dev/svgjs" viewBox="0 0 800 400"><path d="M18.834081649780273,134.52914428710938C18.834081649780273,134.52914428710938,44.843048095703125,99.55156707763672,44.843048095703125,99.55156707763672C44.843048095703125,99.55156707763672,90.58296203613281,295.964111328125,90.58296203613281,295.964111328125C90.58296203613281,295.964111328125,232.28700256347656,93.27354431152344,232.28700256347656,93.27354431152344C232.28700256347656,93.27354431152344,294.17041015625,298.6546936035156,294.17041015625,298.6546936035156C294.17041015625,298.6546936035156,147.9820556640625,199.10313415527344,147.9820556640625,199.10313415527344C147.9820556640625,199.10313415527344,401.7937316894531,195.5157012939453,401.7937316894531,195.5157012939453C401.7937316894531,195.5157012939453,465.4708557128906,328.2511291503906,465.4708557128906,328.2511291503906C465.4708557128906,328.2511291503906,351.56951904296875,365.9192810058594,351.56951904296875,365.9192810058594C351.56951904296875,365.9192810058594,263.6771240234375,113.9013442993164,263.6771240234375,113.9013442993164C263.6771240234375,113.9013442993164,492.3766784667969,19.730941772460938,492.3766784667969,19.730941772460938C492.3766784667969,19.730941772460938,696.8609619140625,156.95066833496094,696.8609619140625,156.95066833496094C696.8609619140625,156.95066833496094,539.013427734375,86.99551391601562,539.013427734375,86.99551391601562C539.013427734375,86.99551391601562,676.233154296875,31.390134811401367,676.233154296875,31.390134811401367C676.233154296875,31.390134811401367,756.95068359375,99.55156707763672,756.95068359375,99.55156707763672C756.95068359375,99.55156707763672,793.7219848632812,216.14349365234375,793.7219848632812,216.14349365234375C793.7219848632812,216.14349365234375,634.9776000976562,252.0179443359375,634.9776000976562,252.0179443359375C634.9776000976562,252.0179443359375,668.1614379882812,346.1883544921875,668.1614379882812,346.1883544921875C668.1614379882812,346.1883544921875,307.6233215332031,56.50224304199219,307.6233215332031,56.50224304199219C307.6233215332031,56.50224304199219,398.2062683105469,36.77130126953125,398.2062683105469,36.77130126953125C398.2062683105469,36.77130126953125,130.94171142578125,347.9820556640625,130.94171142578125,347.9820556640625" fill="none" stroke-width="1" stroke="url(&quot;#SvgjsLinearGradient1001&quot;)" stroke-linecap="round" stroke-dasharray="0 0" stroke-opacity="0.27" transform="matrix(0.9217951253813528,0.11640576161213301,-0.7823010254493533,0.9860495334541757,176.34218916341587,-37.42822109082644)"></path><defs><linearGradient id="SvgjsLinearGradient1001" gradientTransform="rotate(11, 0.5, 0.5)"><stop stop-color="hsl(0, 0%, 100%)" offset="0"></stop><stop stop-color="hsl(50, 100%, 50%)" offset="1"></stop></linearGradient></defs></svg>